<svg xmlns="http://www.w3.org/2000/svg" version="1.1" viewBox="-5.0 -10.0 110.0 135.0">
 <path d="m82 28.371-60.125-7.6367v-6.1523c0-1.1484-0.93359-2.082-2.082-2.082h-5.2109c-1.1484 0-2.082 0.93359-2.082 2.082 0 1.1523 0.93359 2.0859 2.082 2.0859h3.125v46.875c0 4.5195 2.9141 8.3359 6.9414 9.7734-1.0742 1.4453-1.7305 3.2188-1.7305 5.1562 0 4.7852 3.8945 8.6797 8.6797 8.6797s8.6797-3.8945 8.6797-8.6797c0-1.6602-0.49219-3.1914-1.3008-4.5117h32.473c-0.80859 1.3203-1.3008 2.8555-1.3008 4.5117 0 4.7852 3.8906 8.6797 8.6797 8.6797 4.7852-0.003906 8.6719-3.8984 8.6719-8.6797 0-4.7852-3.8945-8.6797-8.6797-8.6797h-50.695c-3.4453 0-6.25-2.8047-6.25-6.25v-4.8633h59.332c3.4727 0 6.293-2.8242 6.293-6.293v-17.773c0-3.168-2.3672-5.8516-5.5-6.2422zm-45.891 50.102c0 2.4922-2.0234 4.5117-4.5117 4.5117-2.4883 0-4.5117-2.0195-4.5117-4.5117 0-2.4922 2.0234-4.5117 4.5117-4.5117 2.4844-0.003907 4.5117 2.0195 4.5117 4.5117zm47.223 0c0 2.4922-2.0234 4.5117-4.5117 4.5117-2.4883 0-4.5117-2.0195-4.5117-4.5117 0-2.4922 2.0234-4.5117 4.5117-4.5117 2.4883-0.003907 4.5117 2.0195 4.5117 4.5117zm0-26.086c0 1.1719-0.95312 2.125-2.125 2.125h-59.332v-29.578l59.602 7.5664c1.0625 0.13672 1.8555 1.043 1.8555 2.1133z"/>
</svg>